<svg xmlns="http://www.w3.org/2000/svg" height="16" width="16" viewBox="0 0 50 50"><path d="M 36.09375 0 C 35.195313 0 34.207031 0.5 33.40625 1.5 L 25.09375 13.09375 C 23.894531 12.792969 22.699219 12.6875 21.5 12.6875 C 19.335938 12.6875 17.273438 13.160156 15.375 13.96875 L 15.34375 13.96875 L 3.5 2.09375 C 3.292969 1.871094 2.992188 1.757813 2.6875 1.78125 C 2.296875 1.820313 1.964844 2.082031 1.839844 2.449219 C 1.710938 2.820313 1.8125 3.230469 2.09375 3.5 L 46.5 47.90625 C 46.742188 48.203125 47.128906 48.339844 47.503906 48.253906 C 47.875 48.167969 48.167969 47.875 48.253906 47.503906 C 48.339844 47.128906 48.203125 46.742188 47.90625 46.5 L 36.03125 34.625 C 37.339844 31.527344 37.640625 28 36.8125 24.6875 L 48.5 16.6875 C 49.398438 15.988281 49.898438 15.085938 50 14.1875 C 50 13.585938 49.804688 13 49.40625 12.5 L 37.59375 0.59375 C 37.195313 0.195313 36.59375 0 36.09375 0 Z M 36.09375 2 L 36.1875 2 L 48 13.90625 L 48 14 C 48 14.300781 47.8125 14.699219 47.3125 15 L 35.09375 23.3125 L 35 23.40625 C 34.699219 23.707031 34.488281 24.101563 34.6875 24.5 C 35.570313 27.394531 35.445313 30.351563 34.46875 33.0625 L 16.9375 15.53125 C 18.390625 15.027344 19.921875 14.8125 21.5 14.8125 C 22.800781 14.8125 24.113281 15.011719 25.3125 15.3125 C 25.710938 15.414063 26.105469 15.304688 26.40625 14.90625 L 35 2.6875 C 35.398438 2.1875 35.792969 2 36.09375 2 Z M 11.8125 16 C 11.3125 16.398438 10.8125 16.8125 10.3125 17.3125 C 10.113281 17.511719 10 17.699219 10 18 C 10 18.300781 10.113281 18.488281 10.3125 18.6875 L 17.75 26.15625 L 0.21875 48.375 C -0.101563 48.773438 -0.0703125 49.347656 0.289063 49.710938 C 0.652344 50.070313 1.226563 50.101563 1.625 49.78125 L 23.78125 32.1875 L 31.1875 39.59375 C 31.386719 39.792969 31.707031 39.90625 31.90625 39.90625 C 32.105469 39.90625 32.394531 39.792969 32.59375 39.59375 C 33.09375 39.09375 33.507813 38.59375 33.90625 38.09375 L 32.5 36.6875 C 32.300781 36.988281 32.105469 37.199219 31.90625 37.5 L 12.5 18.09375 C 12.699219 17.894531 13.011719 17.699219 13.3125 17.5 Z M 19.15625 27.5625 L 22.375 30.78125 L 7.0625 42.90625 Z"/></svg>